<?xml version="1.0" encoding="UTF-8"?>
<svg version="1.1" viewBox="0 0 2048 2048" width="512" height="512" xmlns="http://www.w3.org/2000/svg">
<path transform="translate(798)" d="m0 0h459l139 4 53 3 11 2 12 6 8 7 7 10 4 9 2 9v10l-2 10-7 14-7 8-5 4-1 27 3 10 28 49 26 48 8 16 15 31 13 31 8 22 4 17 1 11 1 1465 1 4v13l-5 11-5 6-8 5-30 11-22 8 3 9v51l-3 10-6 8-9 6-22 10-33 13-23 8-28 9-37 10-40 9-44 8-42 6-58 6-56 4h-118l-84-6-45-4-43-5-45-6-57-9-68-13-41-9-34-8-14-5-9-8-5-9-1-4v-66l3-9-35-13-28-12-9-6-6-8-3-8-1-9v-1472l2-16 6-21 10-25 11-25 14-29 11-22 24-44 14-24 13-23 1-4v-42l-7-17-1-4v-15l4-12 4-8 8-9 10-7 11-4 19-2 61-3zm-160 104-1 38-4 11-16 28-13 23-26 48-24 48-11 24-9 24-2 9v290l5-1 33-15 16-7 22-12 25-13 19-11 22-14 24-15 17-12 19-14 18-13 10-8 14-12 11-9 13-11 11-9 8-8 8-7 40-40 7-6v-2l4-2 21-21 8-7 10-9 11-9 17-14 19-14 17-12 15-10 26-15 23-12 24-12 29-12 23-8 32-10 33-8 21-4 27-4 27-3 35-2h34l45 3 32 4 35 6 9 2h7l-6-11-12-23-14-24-10-18-7-14-1-5-1-36zm778 260-41 3-39 5-36 7-36 9-36 12-28 11-33 16-24 13-19 12-23 16-19 14-13 11-11 9-12 11-10 10-8 7-9 9-8 7-17 16-16 15-10 9-11 10-11 9-18 14-14 10-19 14-18 13-25 15-26 15-23 13-16 8-26 12-30 13-26 10-47 15-27 7-41 9-41 7-15 2-2 1v866l5-1 66-29 22-12 31-16 28-17 21-13 24-16 18-13 17-12 13-10 16-13 14-12 14-11 10-9 8-7 17-17 8-7 14-14 8-7 16-16 8-7 9-9 8-7 13-11 14-11 15-12 14-10 17-12 17-11 25-14 19-10 24-12 31-13 28-10 30-9 32-8 32-6 30-4 34-3 32-1h18l26 1 35 3 37 5 35 7 24 6h4l1-584v-126l-1-164-15-1zm65 996-37 1-41 3-33 4-39 7-44 11-36 12-21 8-29 13-29 15-25 15-19 13-14 10-17 13-17 14-26 24-15 14-10 9-24 22-8 7-14 13-11 9-15 12-17 12-36 26-15 10-21 12-23 13-25 14-29 14-35 15-25 10-36 12-41 12-50 11-36 6-32 4-4 1v30l10 5 34 12 41 13 44 12 42 10 48 10 46 8 43 6 46 5 51 4 40 2h88l41-2 43-3 55-6 49-7 45-8 51-11 51-13 41-12 35-11 37-13v-451l-8-1z" fill="#C7120D"/>
<path transform="translate(1439,765)" d="m0 0h11l-1 11-19 102-6 34-4 27-4 45-1 33-2 2-50 15-3-1 1-22 2-26 1-7-2 1-8 17-14 21-9 11-8 9h-2v2l-14 11-16 9-15 6-12 3-14 1-13-2-14-7-8-8-6-10-6-16-2-12v-23l2-18 5-24 9-27 9-20 10-18 10-15 13-17 11-12 13-13 11-9 15-11 15-9 21-11 23-9 26-7 24-4zm-57 56-21 5-16 6-13 8-10 8-12 11-10 12-12 18-12 23-7 20-4 16-2 11v27l4 13 4 6 8 6 3 1h11l10-3 9-5 10-8 8-8 11-15 10-18 9-21 7-23 7-33 10-51v-5z" fill="#C7120D"/>
<path transform="translate(855,841)" d="m0 0h11l14 2-2 9-13 41-4 4-4-1h-14l-23 3-21 5-17 6-19 9-17 11-13 10-12 11-7 7-11 14-10 15-9 16-8 19-7 21-5 23-2 24v14l2 17 5 17 7 13 8 9 11 7 12 4 5 1h24l23-5 22-8 18-8 16-9 10-7 3 1 5 41-1 5-21 13-15 8-29 12-24 8-22 5-22 3h-15l-15-2-15-4-14-7-13-10-9-10-8-13-6-14-5-20-2-19v-23l2-21 4-22 6-23 9-24 8-18 13-23 10-15 10-13 11-13 11-12 13-13 11-9 18-14 21-13 23-12 25-10 23-7 20-4z" fill="#C7120D"/>
<path transform="translate(1025,884)" d="m0 0 16 1 12 3 12 6 12 11 7 9 6 13 4 14 1 6v32l-2 15-5 22-7 21-9 20-11 19-12 17-13 15-15 15-14 11-19 12-16 8-19 7-16 4-6 1h-25l-15-4-10-5-10-8-8-10-7-14-4-14-2-17v-10l2-22 4-21 6-20 9-21 11-21 11-16 11-14 14-15 11-10 19-14 18-10 16-7 15-5 15-3zm-30 51-14 4-10 5-12 9-10 10-10 14-10 18-8 20-6 22-3 18v26l3 12 4 8 7 8 10 5 3 1h13l12-3 15-8 13-12 9-10 11-18 8-17 8-24 5-24 1-10v-15l-3-15-7-14-7-6-11-4z" fill="#C7120D"/>
<path transform="translate(1221,713)" d="m0 0 3 1-5 29-18 100-32 178-13 73-2 2-54 16h-4l1-10 25-138 40-220 3-13 8-3 43-13z" fill="#C7120D"/>
<path transform="translate(603,1990)" d="m0 0 2 3v-2h5l5 4h15l13 3h6l5 2 16 2 4 2h10l10 3 5 1 6 1 9 2 3 1 10 1 16 4 3 1 7-1 9 2 1 1 10 1 4 2h12l1 1 9 1 2 1 1 4-12-1-52-8-41-7-46-9-41-9-13-3v-1z" fill="#D22820"/>
<path transform="translate(611,1037)" d="m0 0 3 4 1 4-5 4 3 5-4 13v13l-2 4-1 21v8l-1 5 1 22 1 18-3-3h-1l-1-13-1-2v-11h-2v15h-1l-1-12v-23l2-21 4-22 6-23z" fill="#D22820"/>
<path transform="translate(1513,655)" d="m0 0h1l1 265v287h1l1 12 2-1v5 4l-2-1 1 5-2 5-2 4-3-1h2z" fill="#D32921"/>
<path transform="translate(711,1737)" d="m0 0 5 1 3 2-24 8-41 12-50 11-11 2h-4v-2l5-3h6v2l18-8h6l12-3 8-3 6-2 16-3 21-7 20-5z" fill="#D22820"/>
<path transform="translate(1407,105)" d="m0 0h1l1 17 3 3v5l2 4v8l6 12 1 4 2 4v3h2l6 12 1 3h2v2h-2l1 4h3l-1 4h2l1 3 2 2 2 6 1 5 4-2 3 5-1 3-1-2-1 3h2l2 5h2l3 9-4-1-13-25-14-24-10-18-7-14-1-5z" fill="#D22820"/>
<path transform="translate(1497,1960)" d="m0 0 4 1-15 8-36 15-30 11-25 8-5-1 1-4h2v-2l10-1 4-3 8-2 5-2h9l1-3 10-3 6-2h4v-2l8-1h3l2-5 6-1 4-2 7-3 6-3 5 1 1-2h5z" fill="#D22820"/>
<path transform="translate(1513,1361)" d="m0 0h1l1 7 2 1v6l-2-1v432l1 5-3 1z" fill="#D32921"/>
<path transform="translate(484,302)" d="m0 0 3 4-1 10-3 8-1 8-1 1v48l-4 2v-9l-2-8-1-22-3-3 4-16 8-21z" fill="#D22820"/>
<path transform="translate(479,1770)" d="m0 0 2 3 1 6-1 10-1 27v27l-3-1v-3h-2l1-10-1-8v-2l-1-5 1-26 2-9h2z" fill="#D32921"/>
<path transform="translate(571,40)" d="m0 0 1 2h2v17l2 8v14l-2 3-7-17-1-4v-15l2-7 3 1z" fill="#D1261E"/>
<path transform="translate(767,100)" d="m0 0 15 1v1l61 1v1h-191v-1l104-1z" fill="#D32921"/>
<path transform="translate(658,752)" d="m0 0 6 2v2l-28 8-18 4-3-1-1-3h3v-2l16-3 6-2 13-3z" fill="#D22820"/>
<path transform="translate(1285,100)" d="m0 0 7 1 1 1 103 1v1h-183v-1l71-1z" fill="#D22820"/>
<path transform="translate(1422,358)" d="m0 0 10 1 2 1v2l53 1v1l-86 1v-1l10-1 2-3z" fill="#D32921"/>
<path transform="translate(547,1896)" d="m0 0 6 1 2 11 1 18v10l-3-1-1-8-1-9-2-5 1-6-1-5h-2z" fill="#D32921"/>
<path transform="translate(1430,181)" d="m0 0 2 3 1 2h3l-1 4h2l1 3 2 2 2 6 1 5 4-2 3 5-1 3-1-2-1 3h2l2 5h2l3 9-4-1-13-25-10-17z" fill="#D32921"/>
<path transform="translate(575,87)" d="m0 0 2 2v4h2l1 4-1 17-2 12-1 2h-2z" fill="#D22820"/>
<path transform="translate(1221,713)" d="m0 0 3 1-4 23-3-4-2-10-5-6z" fill="#D2271F"/>
<path transform="translate(756,1723)" d="m0 0h2v2l-19 8-16 6-4-1 4-4 7-1 5-4 10-4 5 1z" fill="#D32921"/>
<path transform="translate(1515,1207)" d="m0 0h1l1 12 2-1v5 4l-2-1 1 5-2 5-2 4-3-1h2v-29h2z" fill="#D2271F"/>
<path transform="translate(607,1158)" d="m0 0h1l4 13 8 16 2 5h2l1 3-6-2-3-4-2-8h-2l-2-5-3-10-1-5z" fill="#D32921"/>
<path transform="translate(1372,888)" d="m0 0 2 3v10l-1 4h-2v6l-2 5-4 2 2-11 4-18z" fill="#D22820"/>
<path transform="translate(1185,414)" d="m0 0 6 1-4 3-26 13-1-2 5-5 14-7z" fill="#D32921"/>
<path transform="translate(776,2023)" d="m0 0h13l1 1 9 1 2 1 1 4-12-1-6-1v-2l-8-1z" fill="#D32921"/>
<path transform="translate(1422,165)" d="m0 0h3l6 12 1 3h2v2h-6l-8-14v-2z" fill="#CA1812"/>
<path transform="translate(1209,1412)" d="m0 0h7l-4 3-23 11-1-2h2v-2l9-6z" fill="#D22820"/>
<path transform="translate(606,764)" d="m0 0h5l1 3 2 2-14 3-4-1h3l-2-2v-3z" fill="#D22820"/>
<path transform="translate(1408,140)" d="m0 0 3 1v5l2 1-1 2 3 1 6 12h-2l-1 2-8-14-2-5z" fill="#C81510"/>
<path transform="translate(1439,765)" d="m0 0h11v1l-8 1 3 1 2 6-2 4h-2v-3h-2l-1-6-13-2v-1z" fill="#D32921"/>
<path transform="translate(1367 2e3)" d="m0 0h7l1 3 2 1-10 3-4-1-2-3 2-2z" fill="#D22820"/>
<path transform="translate(489,1858)" d="m0 0 5 1v2l8 2 1 3-5 1-11-5z" fill="#D22820"/>
<path transform="translate(767,100)" d="m0 0 9 1-1 3h-21l2-2z" fill="#D2271F"/>
<path transform="translate(779,1205)" d="m0 0 5 2-4 3-19 7-2-1 2-3h7v-2h2v-2l8-2z" fill="#D32921"/>
<path transform="translate(583,769)" d="m0 0h5l2 5-9 1-2-2h-3l-1-3z" fill="#D32921"/>
<path transform="translate(1445,209)" d="m0 0h2v4h2l2 5h2l3 9-4-1-8-16z" fill="#D32921"/>
<path transform="translate(652,1216)" d="m0 0 9 4 1 4-1 2-7-1 2-1v-2h-2v-3l-4-2z" fill="#D32921"/>
<path transform="translate(1102,1102)" d="m0 0 15 4-4 2-10 2z" fill="#D32921"/>
<path transform="translate(1369,1023)" d="m0 0 10 2 4 3-12 3v-5h-2z" fill="#D32921"/>
<path transform="translate(1382 2e3)" d="m0 0 7 1-1 4-9 2-2-3h2l1-3z" fill="#D32921"/>
<path transform="translate(1159,760)" d="m0 0 2 1 2 5-2 1-1 10-3 1-1 2 1-9z" fill="#D1261E"/>
<path transform="translate(715,735)" d="m0 0h9l-3 2-13 5-3-1 2-1v-3h5z" fill="#D22820"/>
<path transform="translate(603,1990)" d="m0 0 2 3v-2h5l5 4 2 2-11-2-9-2v-1z" fill="#D32921"/>
<path transform="translate(594,1768)" d="m0 0h6v2l5-1-1 2-11 2h-4v-2z" fill="#D32921"/>
<path transform="translate(1441,766)" d="m0 0h9l-1 10-4-4v-4l-4-1z" fill="#C8150F"/>
<path transform="translate(1221,713)" d="m0 0 3 1-2 8-2-1-1-3-3 1-1-3z" fill="#CA1812"/>
<path transform="translate(572,1983)" d="m0 0 7 1 3 5-12-3-1-2z" fill="#D32921"/>
<path transform="translate(1215,1046)" d="m0 0 3 1v2h3l2 3 1 6h-3l-1-2 1-2-3-1-1-4h-2z" fill="#D32921"/>
<path transform="translate(1362,997)" d="m0 0h1l1 5v12 3l-2 2-1-1z" fill="#D2271F"/>
<path transform="translate(500,265)" d="m0 0 2 4-3 5-3 7h-2l1-5z" fill="#D2271F"/>
<path transform="translate(1423,165)" d="m0 0h2l6 12 1 3h2v2l-3-1-4-4v-4h-2l-1-4z" fill="#D32921"/>
<path transform="translate(1515,1227)" d="m0 0 3 3-2 6-2 4-3-1h2v-11z" fill="#D32921"/>
<path transform="translate(1337,2012)" d="m0 0 2 2-1 4-7 1 2-6z" fill="#D32921"/>
<path transform="translate(1294,1052)" d="m0 0h5v3l-9 4 2-6z" fill="#D2271F"/>
<path transform="translate(716,948)" d="m0 0h4l1 3-5 4h-3l1-5z" fill="#D1261E"/>
<path transform="translate(491,285)" d="m0 0h2l1 5-4 1v7l-3 1-1-2z" fill="#D32921"/>
<path transform="translate(1208,1036)" d="m0 0 1 3h3l2 3v5l-2 1-5-11z" fill="#CE2019"/>
<path transform="translate(479,371)" d="m0 0 2 4v6l-4 2v-7z" fill="#CF221B"/>
<path transform="translate(1351,2009)" d="m0 0h6v2l2 2-8 1-2-4z" fill="#D22820"/>
<path transform="translate(1375,868)" d="m0 0 2 4-1 10-3 1 1-10z" fill="#D32921"/>
<path transform="translate(1311,856)" d="m0 0 2 1-9 10-1-4 3-2 1-3z" fill="#D22820"/>
<path transform="translate(1376,363)" d="m0 0 9 1 2 2-1 1h-8l-2-1z" fill="#D32921"/>
<path transform="translate(1224,396)" d="m0 0 2 1v2l2 2-8 3-3-1 4-3v-2z" fill="#D22820"/>
<path transform="translate(1409 2e3)" d="m0 0h5l-1 2-9 3h-6l3-2z" fill="#CA1812"/>
<path transform="translate(1493,1356)" d="m0 0h7l1 3-8-1v2h-5l1-3z" fill="#D32921"/>
<path transform="translate(872,842)" d="m0 0 8 1-2 9h-1v-5l-2-1v-2z" fill="#D32921"/>
<path transform="translate(1439,765)" d="m0 0h11v1l-9 1-4 1-10-1v-1z" fill="#D2271F"/>
<path transform="translate(736,728)" d="m0 0 4 1-12 5-2-1 5-4z" fill="#D32921"/>
<path transform="translate(651,1218)" d="m0 0 3 1v3h2v2l-6-1-3-1 1-2h3z" fill="#CB1913"/>
<path transform="translate(1446,204)" d="m0 0 4 5-1 3-1-2-5-1-1-3z" fill="#D0231C"/>
</svg>
