<?xml version="1.0" encoding="UTF-8"?>
<svg version="1.1" viewBox="0 0 2048 2048" width="512" height="512" xmlns="http://www.w3.org/2000/svg">
<path transform="translate(972)" d="m0 0h34l33 6 25 7 25 10 20 10 19 12 11 8 9 7 11 9 17 16 11 12 9 11 14 19 10 16 12 21 10 21 10 26 7 23 7 30 3 19v8l8-7 193-193 9-6 8-3 4-1h13l10 3 10 6 16 15v2h2v2h2l7 8 15 15 7 12 2 6v17l-4 11-9 12-9 9h-2l-2 4-191 191 11 8 10 9 8 9 10 16 7 16 3 12 1 7v26l-3 15-4 12-9 17-11 14-8 8-14 10-10 5 1 1 45 1 14 2 16 5 19 10 11 9 12 12 7 10 6 10 7 18 3 14 1 17-2 17-4 15-6 14-9 14-11 13-8 6-2 32-10 157-9 143-9 139-4 63-11 176-9 140-11 176-9 140-4 62-2 21-3 10-8 11-8 6-8 4-6 2h-714l-16-8-6-5-6-8-4-11-2-18-24-378-43-677-11-173v-4l-8-6-12-14-10-17-6-16-3-14-1-8v-14l4-22 6-15 9-15 8-10 11-11 13-9 16-8 16-5 15-2 43-1-9-6-11-8-7-6-7-8-9-12-8-15-5-16-3-18v-12l3-19 5-15 6-12 9-13 11-12 13-10 14-8 16-6 14-3 10-1 37-1-1-23v-43l3-21 5-17 7-17 8-14 8-11 9-11 13-13 16-12 15-9 20-8 21-5 7-1 38-2 16-3 19-7 14-8 12-9 14-14 10-15 8-17 5-18 2-19-2-21v-25l3-7 7-6z" fill="#F7E576"/>
<path transform="translate(972)" d="m0 0h34l33 6 25 7 25 10 20 10 19 12 11 8 9 7 11 9 17 16 11 12 9 11 14 19 10 16 12 21 10 21 10 26 7 23 7 30 3 19v8l8-7 193-193 9-6 8-3 4-1h13l10 3 10 6 16 15v2h2v2h2l7 8 15 15 7 12 2 6v17l-4 11-9 12-9 9h-2l-2 4-191 191 11 8 10 9 8 9 10 16 7 16 3 12 1 7v26l-3 15-4 12-9 17-11 14-8 8-14 10-10 5 1 1 45 1 14 2 16 5 19 10 11 9 12 12 7 10 6 10 7 18 3 14 1 17-2 17-4 15-6 14-9 14-11 13-9 7h-79l-40 1-12 6-8 7-5 8-3 10-1 13v49l-1 107v156l-2 15-5 13-7 12-11 12-13 10-18 7-5 1h-20l-12-3-9-4-9-5-10-9-7-7-8-13-5-15-1-6-1-34v-288l-1-13-4-10-6-8-7-6-8-4-9-2h-610l-9-7-12-14-10-17-6-16-3-14-1-8v-14l4-22 6-15 9-15 8-10 11-11 13-9 16-8 16-5 15-2 43-1-9-6-11-8-7-6-7-8-9-12-8-15-5-16-3-18v-12l3-19 5-15 6-12 9-13 11-12 13-10 14-8 16-6 14-3 10-1 37-1-1-23v-43l3-21 5-17 7-17 8-14 8-11 9-11 13-13 16-12 15-9 20-8 21-5 7-1 38-2 16-3 19-7 14-8 12-9 14-14 10-15 8-17 5-18 2-19-2-21v-25l3-7 7-6z" fill="#FAFBFC"/>
<path transform="translate(1371,766)" d="m0 0h77l3 1-3 45-10 160-9 139-12 189-11 176-9 140-11 176-6 92-1 9h-125l-30-1-1-5 2-54 3-45 2-39 3-43 6-93 4-64 4-63 3-51 3-43 2-32 3-50 2-27 2-38 5-60 7-7 7-8 7-9 8-16 3-10 1-11v-156l1-107v-49l2-18 5-10 8-9 12-7 3-1z" fill="#F9D608"/>
<path transform="translate(1217,1892)" d="m0 0 26 1 47 1h89l-1 24-5 76-2 21-3 10-8 11-8 6-8 4-6 2h-714l-16-8-6-5-6-8-4-11-2-18-6-94v-11z" fill="#FBFCFD"/>
<path transform="translate(735,766)" d="m0 0h388l9 2 10 5 9 9 6 11 1 4 1 13v162l-1 10-9-2-27-10-34-16-24-11-24-8-20-4-17-2h-44l-26 4-19 5-17 6-30 14-19 9-21 8-22 6-20 4-19 2h-18l-19-2-17-3-25-6-21-8-35-17-23-10-19-6-22-4-18-2-19-1-7-1-1-2-10-155v-3z" fill="#B97E66"/>
<path transform="translate(1491,81)" d="m0 0h13l10 3 10 6 16 15v2h2v2h2l7 8 15 15 7 12 2 6v17l-4 11-9 12-9 9h-2l-2 4-188 188-3 2-6-1-15-6-23-5-42-2-1-64-1-23 7-8 193-193 9-6 8-3z" fill="#F8E676"/>
<path transform="translate(1371,766)" d="m0 0h77l3 1-3 45-7 110-1 5-2 1-36 2-23 4-18 5-25 10-32 16h-2l-1-41v-112l2-18 5-10 8-9 12-7 3-1z" fill="#A56B52"/>
<path transform="translate(1402,259)" d="m0 0h89l-2 4-128 128-3 2-6-1-15-6-23-5-42-2-1-64-1-23 7-8 24-24z" fill="#F9D609"/>
<path transform="translate(1365,196)" d="m0 0 183 2 3 1-2 4-57 57h-190l6-7z" fill="#FBFCFD"/>
<path transform="translate(1402,259)" d="m0 0h89l-1 2-93 1-8 7-105 105h-2l-1 4h24l9 1v1h-15l-27-1-1-64-1-23 7-8 24-24z" fill="#F8E676"/>
<path transform="translate(1517,87)" d="m0 0 4 1 14 12 5 5v2h2v2h2l7 8 15 15 7 12 2 6v17l-4 11-9 12-7 7h-88l-3-1 2-4 15-16 37-37 8-14 1-3v-15l-3-8-6-9z" fill="#F9D608"/>
<path transform="translate(882,1406)" d="m0 0 11 1 9 4 8 6 6 9 2 8-1 11-3 8-6 8-11 7-3 1h-16l-12-6-8-10-3-7-1-6v-8l4-11 6-7 10-6z" fill="#FAD608"/>
<path transform="translate(703,1263)" d="m0 0h13l11 4 10 9 4 7 1 4v14l-6 12-8 7-7 4-4 1h-13l-12-6-5-5-4-5-4-11v-9l3-10 9-10 9-5z" fill="#FAD608"/>
<path transform="translate(733,1598)" d="m0 0h17l10 5 8 8 4 7 1 4v13l-6 12-4 5-5 4-10 4h-12l-9-4-8-6-6-8-2-6v-17l4-8 3-4h2l1-3z" fill="#FAD608"/>
<path transform="translate(1304,792)" d="m0 0 1 3-1 5v162l4 1-6 2-1-41v-112l2-18z" fill="#B97E66"/>
<path transform="translate(1371,766)" d="m0 0h77l3 1-1 4v-3l-98 1h-16l-6 2-8 1 4-3 5-2z" fill="#B97E66"/>
<path transform="translate(866,953)" d="m0 0 3 1h-2v4l-19 9-15 6h-8l1-2 6-3 2-2 6-1v-3l8-2 2-2 9-3z" fill="#A86D55"/>
<path transform="translate(1091,953)" d="m0 0h5l3 3 20 8 2 2 6 2 3 3-10-2-28-13z" fill="#AB7058"/>
<path transform="translate(1319,773)" d="m0 0 2 1-12 12v-3l7-8z" fill="#B2785F"/>
</svg>
